<?xml version="1.0" encoding="utf-8"?>
<!-- Generator: Adobe Illustrator 26.5.0, SVG Export Plug-In . SVG Version: 6.00 Build 0)  -->
<svg version="1.1" id="Calque_1" xmlns="http://www.w3.org/2000/svg" xmlns:xlink="http://www.w3.org/1999/xlink" x="0px" y="0px"
	 viewBox="0 0 276 276" style="enable-background:new 0 0 276 276;" xml:space="preserve">
<style type="text/css">
	.st0{fill:#53ADAE;}
</style>
<path class="st0" d="M205.7,136.4c-0.4-3.4-1.8-6.7-4-9.3L100.9,9.5c-2.7-4-6.9-6.6-11.7-7.2S79.7,3.1,76,6.2
	c-3.6,3.1-5.8,7.6-5.9,12.4s1.8,9.4,5.3,12.6L167.1,138L75.5,244.7c-3.5,3.3-5.4,7.9-5.3,12.7c0.1,4.8,2.2,9.3,5.9,12.4
	c3.6,3.1,8.4,4.5,13.2,3.9c4.7-0.6,9-3.3,11.7-7.2l100.8-117.6C204.7,145.4,206.1,140.9,205.7,136.4L205.7,136.4z"/>
</svg>
