<?xml version="1.0" encoding="utf-8"?>
<!-- Generator: Adobe Illustrator 26.5.0, SVG Export Plug-In . SVG Version: 6.00 Build 0)  -->
<svg version="1.1" id="Calque_1" xmlns="http://www.w3.org/2000/svg" xmlns:xlink="http://www.w3.org/1999/xlink" x="0px" y="0px"
	 viewBox="0 0 236.5 237" style="enable-background:new 0 0 236.5 237;" xml:space="preserve">
<style type="text/css">
	.st0{fill:#B17F4A;}
</style>
<path class="st0" d="M15.3,15.5c6.6-6.6,17.2-6.6,23.8,0l79.2,79.2l79.2-79.2c6.6-6.6,17.2-6.6,23.8,0c6.6,6.6,6.6,17.2,0,23.8
	L142,118.5l79.2,79.2c6.6,6.6,6.6,17.2,0,23.8c-6.6,6.6-17.2,6.6-23.8,0l-79.2-79.2l-79.2,79.2c-6.6,6.6-17.2,6.6-23.8,0
	c-6.6-6.6-6.6-17.2,0-23.8l79.2-79.2L15.3,39.3C8.7,32.7,8.7,22.1,15.3,15.5L15.3,15.5z"/>
</svg>
