<?xml version="1.0" encoding="UTF-8"?><svg id="Calque_1" xmlns="http://www.w3.org/2000/svg" viewBox="0 0 92.6 90.82"><defs><style>.cls-1{fill:none;stroke:#b17f4a;stroke-linecap:round;stroke-linejoin:round;stroke-width:1.72px;}</style></defs><path class="cls-1" d="M33.8,70.63h-5.07c-4.58,0-8.3-3.71-8.3-8.3V26.89c0-4.58,3.71-8.3,8.3-8.3H63.87c4.58,0,8.3,3.71,8.3,8.3V62.34c0,4.58-3.71,8.3-8.3,8.3h-13.82l-.08-20.71h8.21v-8.32h-8.21v-4.05c0-1.75,1.41-3.16,3.16-3.16h5.05v-9.76h-9.31c-5.63,0-10.2,4.57-10.2,10.2v6.76h-4.21v8.32h4.21v25.73h-10.82c-6.85,0-12.4-5.55-12.4-12.4V26.3c0-6.85,5.55-12.4,12.4-12.4h36.95c6.85,0,12.4,5.55,12.4,12.4V63.25c0,6.85-5.55,12.4-12.4,12.4h-20.09"/></svg>