<?xml version="1.0" encoding="utf-8"?>
<!-- Generator: Adobe Illustrator 26.5.0, SVG Export Plug-In . SVG Version: 6.00 Build 0)  -->
<svg version="1.1" id="Calque_1" xmlns="http://www.w3.org/2000/svg" xmlns:xlink="http://www.w3.org/1999/xlink" x="0px" y="0px"
	 viewBox="0 0 507 507" style="enable-background:new 0 0 507 507;" xml:space="preserve">
<style type="text/css">
	.st0{fill-rule:evenodd;clip-rule:evenodd;fill:#575756;}
</style>
<path class="st0" d="M230,33.1l-60,126.8L30.8,177.8c-10,1.3-18.3,8.2-21.4,17.8c-3.1,9.6-0.4,20.1,6.9,26.9l102,96.3l-26,137.9
	c-1.9,9.9,2.1,19.9,10.3,25.9c8.1,5.9,18.9,6.6,27.8,1.8L253.5,417l123.1,67.3c8.8,4.8,19.6,4.1,27.8-1.8c8.1-5.9,12.1-16,10.3-25.9
	l-26-137.9l102-96.3c7.3-6.9,10-17.4,6.9-26.9c-3.1-9.6-11.4-16.5-21.4-17.8L337,159.9L277,33.1c-4.3-9.1-13.4-14.9-23.5-14.9
	C243.4,18.2,234.3,24,230,33.1L230,33.1z"/>
</svg>
