<?xml version="1.0" encoding="UTF-8"?><svg id="Calque_1" xmlns="http://www.w3.org/2000/svg" viewBox="0 0 92.6 90.82"><defs><style>.cls-1{fill:none;stroke:#b17f4a;stroke-linecap:round;stroke-linejoin:round;stroke-width:1.72px;}</style></defs><circle class="cls-1" cx="46.3" cy="42.7" r="30.88"/><circle class="cls-1" cx="46.3" cy="42.7" r="26.53"/><path class="cls-1" d="M47.76,39.57c-7.53-.2-14.15-4.03-18.19-9.8,0,0-3.04,5.61,1.6,10.21l-2.65-.75s-1.65,5.44,5.14,8.74l-3.39,.2s4.41,5.05,11.13,5.64c-3.2,3.25-9.93,4.09-14.08,3.45,3.71,2.58,8.22,4.09,13.08,4.09,12.68,0,22.97-10.28,22.97-22.97,0-.58-.02-1.16-.06-1.74l4.21-3.95-4.29,.9,3.79-4.09s-2.47,1.21-6.11,1.72c-1.44-1.43-3.43-2.32-5.63-2.32-4.41,0-7.99,3.58-7.99,7.99,0,.94,.16,1.85,.46,2.69Z"/></svg>