<?xml version="1.0" encoding="utf-8"?>
<!-- Generator: Adobe Illustrator 26.5.0, SVG Export Plug-In . SVG Version: 6.00 Build 0)  -->
<svg version="1.1" id="Calque_1" xmlns="http://www.w3.org/2000/svg" xmlns:xlink="http://www.w3.org/1999/xlink" x="0px" y="0px"
	 viewBox="0 0 479.9 348.7" style="enable-background:new 0 0 479.9 348.7;" xml:space="preserve">
<style type="text/css">
	.st0{stroke:#000000;stroke-width:0.8;stroke-miterlimit:10;}
	.st1{fill:#53ADAE;}
	.st2{fill:none;stroke:#936037;stroke-width:1.8;stroke-miterlimit:10;}
</style>
<g>
	<path class="st0" d="M94,188.1H55.6v-52h2v50.2H94V188.1z"/>
	<path class="st0" d="M102.3,188.1h-1.9v-39.5h-3.1v-1.7h5L102.3,188.1L102.3,188.1z M102.6,134.4c0,0.7-0.2,1.3-0.7,1.8
		c-0.5,0.5-1.1,0.7-1.8,0.7c-0.7,0-1.3-0.2-1.8-0.7c-0.5-0.5-0.7-1.1-0.7-1.8c0-0.7,0.2-1.3,0.7-1.8c0.5-0.5,1.1-0.7,1.8-0.7
		c0.7,0,1.3,0.2,1.8,0.7C102.4,133.1,102.6,133.7,102.6,134.4z"/>
	<path class="st0" d="M134.3,185.3c-1.2,1.2-2.4,2.1-3.7,2.8c-1.3,0.7-3.1,1-5.2,1c-1.6,0-3-0.3-4.4-0.9c-1.4-0.6-2.6-1.4-3.5-2.3
		s-1.8-2.1-2.4-3.4c-0.6-1.3-0.9-2.7-0.9-4.1v-44.3h-3.7v-1.6h5.7v45.8c0,1.1,0.2,2.2,0.7,3.3c0.4,1.1,1.1,2.1,1.8,2.9
		c0.8,0.9,1.8,1.6,2.9,2.1c1.1,0.5,2.4,0.8,3.8,0.8c1.8,0,3.4-0.3,4.6-1s2.2-1.4,3-2.3L134.3,185.3z"/>
	<path class="st0" d="M141.2,188.1h-1.9v-39.5h-3.1v-1.7h5L141.2,188.1L141.2,188.1z M141.5,134.4c0,0.7-0.2,1.3-0.7,1.8
		c-0.5,0.5-1.1,0.7-1.8,0.7c-0.7,0-1.3-0.2-1.8-0.7c-0.5-0.5-0.7-1.1-0.7-1.8c0-0.7,0.2-1.3,0.7-1.8c0.5-0.5,1.1-0.7,1.8-0.7
		c0.7,0,1.3,0.2,1.8,0.7C141.2,133.1,141.5,133.7,141.5,134.4z"/>
	<path class="st0" d="M223.5,188h-1.9v-8.1c-3.1,3.4-6.4,5.8-9.9,7.1c-3.4,1.4-6.9,2.1-10.2,2.1c-3.7,0-7.2-0.7-10.5-2.1
		s-6.2-3.4-8.6-5.8c-2.4-2.4-4.4-5.3-5.8-8.6c-1.4-3.3-2.1-6.8-2.1-10.5c0-3.7,0.7-7.2,2.1-10.4c1.4-3.3,3.4-6.1,5.8-8.6
		c2.4-2.4,5.3-4.4,8.6-5.8c3.3-1.4,6.8-2.1,10.5-2.1c3.4,0,6.7,0.6,9.9,1.9s6,3.1,8.6,5.5l-1.4,1.4c-2.2-2.2-4.9-3.9-7.8-5.2
		s-6-1.9-9.1-1.9c-3.5,0-6.7,0.7-9.8,2c-3,1.3-5.7,3.2-7.9,5.5c-2.3,2.3-4,5-5.3,8c-1.3,3-1.9,6.2-1.9,9.6c0,3.4,0.6,6.6,1.9,9.7
		s3.1,5.7,5.3,8s4.9,4.1,7.9,5.5c3,1.4,6.3,2.1,9.8,2.1c3.9,0,7.7-0.9,11.2-2.9c3.5-1.9,6.5-4.5,8.9-7.8v-12.9H205v-1.8h18.5
		L223.5,188L223.5,188z"/>
	<path class="st0" d="M237,188.1h-1.9v-39.5H232v-1.7h5V188.1z M237.3,134.4c0,0.7-0.2,1.3-0.7,1.8c-0.5,0.5-1.1,0.7-1.8,0.7
		c-0.7,0-1.3-0.2-1.8-0.7c-0.5-0.5-0.7-1.1-0.7-1.8c0-0.7,0.2-1.3,0.7-1.8c0.5-0.5,1.1-0.7,1.8-0.7c0.7,0,1.3,0.2,1.8,0.7
		C237.1,133.1,237.3,133.7,237.3,134.4z"/>
	<path class="st0" d="M280.4,151.3l-1.4,1.4c-0.6-0.7-1.5-1.4-2.4-2.1c-1-0.6-2-1.2-3-1.7s-2.2-0.9-3.3-1.1s-2.3-0.4-3.4-0.4
		c-1.6,0-3.5,0.4-5.4,1c-2,0.7-3.8,1.7-5.5,3s-3.1,3-4.3,4.9s-1.7,4.3-1.7,6.9l-0.1,24.7h-1.9v-41.2h1.9v9.1
		c0.9-1.8,2.1-3.3,3.4-4.6c1.3-1.3,2.8-2.3,4.3-3.1c1.5-0.8,3.1-1.4,4.7-1.8c1.6-0.4,3.1-0.6,4.5-0.6c2.9,0,5.4,0.5,7.6,1.5
		C276.8,148.4,278.7,149.7,280.4,151.3z"/>
	<path class="st0" d="M326.1,167.4c0,3-0.6,5.8-1.7,8.4s-2.7,4.9-4.6,6.9c-2,1.9-4.2,3.5-6.8,4.6c-2.6,1.1-5.4,1.7-8.4,1.7
		s-5.8-0.6-8.4-1.7c-2.6-1.1-4.9-2.7-6.9-4.6c-2-1.9-3.5-4.2-4.6-6.9s-1.7-5.4-1.7-8.4s0.6-5.8,1.7-8.4s2.7-4.9,4.6-6.9
		c2-1.9,4.2-3.5,6.9-4.6c2.6-1.1,5.4-1.7,8.4-1.7s5.8,0.6,8.4,1.7s4.9,2.7,6.8,4.6c2,1.9,3.5,4.2,4.6,6.9
		C325.6,161.6,326.1,164.4,326.1,167.4z M324.2,167.4c0-2.6-0.5-5.2-1.6-7.6c-1-2.4-2.5-4.6-4.2-6.4c-1.8-1.8-3.9-3.3-6.2-4.4
		c-2.4-1.1-4.9-1.6-7.6-1.6s-5.2,0.5-7.6,1.6c-2.4,1.1-4.5,2.5-6.3,4.4c-1.8,1.8-3.2,3.9-4.2,6.4s-1.6,5-1.6,7.6
		c0,2.6,0.5,5.2,1.6,7.6c1,2.4,2.5,4.5,4.2,6.4c1.8,1.8,3.9,3.3,6.2,4.4s4.9,1.6,7.7,1.6c2.7,0,5.2-0.5,7.6-1.6s4.5-2.6,6.2-4.4
		c1.8-1.8,3.2-4,4.2-6.4C323.7,172.6,324.2,170.1,324.2,167.4z"/>
	<path class="st0" d="M371.8,188h-2l0.1-8.8c-0.9,1.6-2,2.9-3.2,4.2c-1.3,1.2-2.6,2.2-4.1,3.1c-1.5,0.8-3.1,1.5-4.7,1.9
		c-1.6,0.5-3.2,0.7-4.8,0.7c-2.7,0-5.2-0.4-7.5-1.3c-2.3-0.9-4.3-2.1-6-3.7s-3-3.6-3.9-5.9c-0.9-2.3-1.4-4.9-1.4-7.8v-23.5h2v23.5
		c0,2.6,0.5,5,1.4,7.1c1,2.1,2.2,3.9,3.8,5.4s3.4,2.6,5.4,3.4c2,0.8,4.1,1.2,6.3,1.2c2.1,0,4.2-0.4,6.2-1.3c2-0.8,3.8-2,5.4-3.5
		c1.6-1.5,2.8-3.2,3.8-5.2c1-2,1.4-4.1,1.4-6.4v-24.2h2L371.8,188L371.8,188z"/>
	<path class="st0" d="M423.2,188.1h-1.9v-11.5c-1.1,2.2-2.4,4.1-3.9,5.7s-3.1,2.9-4.8,3.9c-1.7,1-3.5,1.8-5.3,2.2
		c-1.8,0.5-3.7,0.7-5.5,0.7c-2.9,0-5.7-0.6-8.3-1.7s-4.9-2.6-6.9-4.5c-2-1.9-3.5-4.1-4.7-6.7c-1.2-2.6-1.8-5.4-1.8-8.4
		c0-2.9,0.5-5.7,1.6-8.4c1.1-2.6,2.5-5,4.5-7c1.9-2,4.2-3.6,6.8-4.8c2.6-1.2,5.5-1.8,8.7-1.8c1.7,0,3.5,0.2,5.3,0.6
		c1.8,0.4,3.6,1.1,5.3,2.1s3.3,2.2,4.8,3.8c1.5,1.6,2.9,3.5,4,5.8v-25.7h1.9V188.1z M421.4,167.9c0-2.9-0.5-5.6-1.5-8.1
		s-2.4-4.6-4.2-6.4c-1.8-1.8-3.9-3.2-6.2-4.3s-4.9-1.6-7.6-1.6c-2.9,0-5.6,0.6-8,1.7s-4.5,2.6-6.2,4.4c-1.7,1.8-3.1,4-4,6.4
		s-1.4,5-1.4,7.7s0.5,5.2,1.6,7.6s2.5,4.4,4.3,6.2c1.8,1.8,3.9,3.2,6.2,4.3s4.9,1.6,7.6,1.6c2.7,0,5.2-0.5,7.6-1.6
		c2.4-1.1,4.5-2.5,6.2-4.3s3.2-3.9,4.2-6.2C420.9,173,421.4,170.5,421.4,167.9z"/>
</g>
<g>
	<g>
		<path class="st1" d="M55.6,205.5l4,4.9l4-4.9h2.1v12.3h-2.4v-8.6h-0.1l-3.6,4.3h-0.3l-3.6-4.3h-0.1v8.6h-2.4v-12.3L55.6,205.5
			L55.6,205.5z"/>
		<path class="st1" d="M76,205.5l5.4,12.3h-2.5l-1.3-3h-5.5l-1.2,3h-2.5l5.1-12.3L76,205.5L76,205.5z M72.9,213h4l-2.1-4.9L72.9,213
			z"/>
		<path class="st1" d="M87.7,205.3c1.2,0,2.4,0.3,3.5,0.9v2.1c-1.3-0.8-2.4-1.1-3.4-1.1c-0.6,0-1.1,0.1-1.4,0.4
			c-0.3,0.2-0.5,0.5-0.5,0.9c0,0.5,0.3,0.9,0.9,1.3c0.2,0.1,0.8,0.4,2,1c1,0.5,1.7,1,2.2,1.6c0.4,0.6,0.7,1.3,0.7,2.1
			c0,1.1-0.4,1.9-1.1,2.6s-1.8,1-3,1c-0.8,0-1.5-0.1-2-0.3c-0.6-0.2-1.2-0.5-1.9-0.9v-2.3c1.3,1.1,2.6,1.6,3.7,1.6
			c0.6,0,1.1-0.1,1.4-0.4c0.4-0.2,0.5-0.6,0.5-1c0-0.6-0.3-1-0.9-1.4c-0.5-0.3-1.2-0.6-2-1c-1-0.4-1.7-0.9-2.2-1.5
			c-0.5-0.6-0.7-1.3-0.7-2.1c0-1,0.4-1.9,1.2-2.5C85.4,205.6,86.4,205.3,87.7,205.3z"/>
		<path class="st1" d="M98.6,205.3c1.2,0,2.4,0.3,3.5,0.9v2.1c-1.3-0.8-2.4-1.1-3.4-1.1c-0.6,0-1.1,0.1-1.4,0.4
			c-0.3,0.2-0.5,0.5-0.5,0.9c0,0.5,0.3,0.9,0.9,1.3c0.2,0.1,0.8,0.4,2,1c1,0.5,1.7,1,2.2,1.6c0.4,0.6,0.7,1.3,0.7,2.1
			c0,1.1-0.4,1.9-1.1,2.6s-1.8,1-3,1c-0.8,0-1.5-0.1-2-0.3c-0.6-0.2-1.2-0.5-1.9-0.9v-2.3c1.3,1.1,2.6,1.6,3.7,1.6
			c0.6,0,1.1-0.1,1.4-0.4c0.4-0.2,0.5-0.6,0.5-1c0-0.6-0.3-1-0.9-1.4c-0.5-0.3-1.2-0.6-2-1c-1-0.4-1.7-0.9-2.2-1.5
			c-0.5-0.6-0.7-1.3-0.7-2.1c0-1,0.4-1.9,1.2-2.5C96.3,205.6,97.3,205.3,98.6,205.3z"/>
		<path class="st1" d="M111.8,205.5l5.4,12.3h-2.5l-1.3-3h-5.5l-1.2,3h-2.5l5.1-12.3L111.8,205.5L111.8,205.5z M108.7,213h4
			l-2.1-4.9L108.7,213z"/>
		<path class="st1" d="M125.8,205.3c1.5,0,3,0.3,4.5,1v2.2c-1.5-0.8-3-1.1-4.4-1.1c-0.9,0-1.7,0.2-2.4,0.5c-0.7,0.4-1.2,0.9-1.6,1.6
			c-0.4,0.7-0.6,1.4-0.6,2.2c0,1.3,0.4,2.3,1.3,3c0.8,0.8,1.9,1.1,3.3,1.1c0.4,0,0.7,0,1.1-0.1c0.3-0.1,0.8-0.2,1.2-0.4v-2.1h-2
			v-1.9h4.4v5.1c-0.6,0.4-1.3,0.8-2.2,1c-0.8,0.2-1.7,0.4-2.7,0.4c-1.3,0-2.5-0.3-3.5-0.8c-1.1-0.5-1.9-1.3-2.5-2.2
			c-0.6-1-0.9-2-0.9-3.2c0-1.2,0.3-2.3,0.9-3.3c0.6-1,1.4-1.7,2.5-2.3C123.3,205.6,124.5,205.3,125.8,205.3z"/>
		<path class="st1" d="M142.3,205.5v1.9h-5.6v3.2h5.3v1.9h-5.3v3.5h5.7v1.9h-8.1v-12.3L142.3,205.5L142.3,205.5z"/>
		<path class="st1" d="M149.4,205.3c1.2,0,2.4,0.3,3.5,0.9v2.1c-1.3-0.8-2.4-1.1-3.4-1.1c-0.6,0-1.1,0.1-1.4,0.4
			c-0.3,0.2-0.5,0.5-0.5,0.9c0,0.5,0.3,0.9,0.9,1.3c0.2,0.1,0.9,0.4,2,1c1,0.5,1.7,1,2.2,1.6s0.7,1.3,0.7,2.1c0,1.1-0.4,1.9-1.1,2.6
			s-1.8,1-3,1c-0.8,0-1.5-0.1-2-0.3c-0.6-0.2-1.2-0.5-1.9-0.9v-2.3c1.3,1.1,2.6,1.6,3.7,1.6c0.6,0,1.1-0.1,1.4-0.4
			c0.4-0.2,0.5-0.6,0.5-1c0-0.6-0.3-1-0.9-1.4c-0.5-0.3-1.2-0.6-2-1c-1-0.4-1.7-0.9-2.2-1.5s-0.7-1.3-0.7-2.1c0-1,0.4-1.9,1.2-2.5
			C147.1,205.6,148.2,205.3,149.4,205.3z"/>
		<path class="st1" d="M165.1,205.5l4.1,4.9l4.1-4.9h2.1v12.3H173v-8.6h-0.1l-3.6,4.3H169l-3.6-4.3h-0.1v8.6H163v-12.3L165.1,205.5
			L165.1,205.5z"/>
		<path class="st1" d="M185.5,205.5l5.4,12.3h-2.5l-1.3-3h-5.5l-1.2,3H178l5.1-12.3L185.5,205.5L185.5,205.5z M182.4,213h4l-2.1-4.9
			L182.4,213z"/>
		<path class="st1" d="M198.8,205.5c1.3,0,2.4,0.3,3.4,0.8c1,0.5,1.8,1.3,2.3,2.2c0.6,0.9,0.8,2,0.8,3.2c0,1.2-0.3,2.3-0.8,3.2
			c-0.6,0.9-1.4,1.6-2.4,2.2c-1,0.5-2.2,0.8-3.5,0.8h-5v-12.3L198.8,205.5L198.8,205.5z M198.6,215.9c1.3,0,2.4-0.4,3.2-1.2
			c0.8-0.8,1.2-1.8,1.2-3.1c0-1.3-0.4-2.4-1.2-3.1c-0.8-0.8-1.9-1.1-3.2-1.1H196v8.6L198.6,215.9L198.6,215.9z"/>
		<path class="st1" d="M216.8,205.5v1.9h-5.6v3.2h5.3v1.9h-5.3v3.5h5.7v1.9h-8.1v-12.3L216.8,205.5L216.8,205.5z M215.7,201.6
			l-3.3,3H211l1.7-3H215.7z"/>
		<path class="st1" d="M224.8,205.5c1.2,0,2.1,0.3,2.8,1s1.1,1.5,1.1,2.5c0,0.7-0.2,1.3-0.5,1.8s-0.9,0.9-1.6,1.2
			c0.4,0.2,0.7,0.5,1.1,0.9c0.3,0.4,0.7,1,1.1,1.8c0.8,1.5,1.3,2.5,1.7,3.1h-2.6c-0.2-0.3-0.4-0.7-0.7-1.3c-0.7-1.3-1.2-2.2-1.5-2.6
			c-0.3-0.5-0.6-0.8-0.9-1s-0.6-0.3-1-0.3h-0.9v5.2h-2.4v-12.3L224.8,205.5L224.8,205.5z M224.3,210.7c0.6,0,1.1-0.2,1.5-0.5
			s0.5-0.7,0.5-1.3c0-0.6-0.2-1-0.5-1.3s-0.9-0.4-1.5-0.4h-1.5v3.4L224.3,210.7L224.3,210.7z"/>
		<path class="st1" d="M239,205.3c1.3,0,2.4,0.3,3.4,0.8c1,0.5,1.8,1.3,2.4,2.3c0.6,1,0.9,2.1,0.9,3.3c0,1.1-0.3,2.2-0.9,3.2
			c-0.6,1-1.4,1.8-2.4,2.3s-2.2,0.8-3.5,0.8c-1.3,0-2.4-0.3-3.5-0.8s-1.9-1.3-2.4-2.3s-0.9-2-0.9-3.2c0-1.1,0.3-2.2,0.9-3.2
			c0.6-1,1.4-1.8,2.4-2.3C236.5,205.6,237.7,205.3,239,205.3z M234.7,211.6c0,0.8,0.2,1.6,0.6,2.2c0.4,0.6,0.9,1.2,1.6,1.5
			s1.4,0.5,2.2,0.5c1.3,0,2.3-0.4,3.1-1.2c0.8-0.8,1.2-1.8,1.2-3.1c0-0.8-0.2-1.6-0.6-2.2c-0.4-0.6-0.9-1.2-1.6-1.5
			s-1.4-0.5-2.2-0.5s-1.6,0.2-2.2,0.5c-0.7,0.4-1.2,0.9-1.5,1.5C234.8,210.1,234.7,210.8,234.7,211.6z"/>
		<path class="st1" d="M258.8,205.5v1.9h-4.4v10.5H252v-10.5h-4.4v-1.9H258.8z"/>
		<path class="st1" d="M264.2,205.5v5.2h6.4v-5.2h2.4v12.3h-2.4v-5.2h-6.4v5.2h-2.4v-12.3L264.2,205.5L264.2,205.5z"/>
		<path class="st1" d="M284.9,205.5v1.9h-5.6v3.2h5.4v1.9h-5.4v3.5h5.7v1.9h-8.1v-12.3L284.9,205.5L284.9,205.5z M283.8,201.6
			l-3.3,3h-1.3l1.7-3H283.8z"/>
		<path class="st1" d="M292.9,205.5c1.2,0,2.1,0.3,2.8,1c0.7,0.6,1.1,1.5,1.1,2.5c0,0.7-0.2,1.3-0.5,1.8c-0.4,0.5-0.9,0.9-1.6,1.2
			c0.4,0.2,0.7,0.5,1,0.9c0.3,0.4,0.7,1,1.1,1.8c0.8,1.5,1.3,2.5,1.7,3.1h-2.6c-0.2-0.3-0.4-0.7-0.7-1.3c-0.7-1.3-1.2-2.2-1.5-2.6
			c-0.3-0.5-0.6-0.8-0.9-1c-0.3-0.2-0.6-0.3-1-0.3h-0.9v5.2h-2.4v-12.3L292.9,205.5L292.9,205.5z M292.3,210.7
			c0.6,0,1.1-0.2,1.5-0.5c0.4-0.3,0.5-0.7,0.5-1.3c0-0.6-0.2-1-0.5-1.3s-0.9-0.4-1.5-0.4h-1.5v3.4L292.3,210.7L292.3,210.7z"/>
		<path class="st1" d="M307.5,205.5l5.4,12.3h-2.5l-1.3-3h-5.5l-1.2,3H300l5.1-12.3L307.5,205.5L307.5,205.5z M304.4,213h4l-2.1-4.9
			L304.4,213z"/>
		<path class="st1" d="M320.4,205.5c1.1,0,2.1,0.3,2.8,1s1.1,1.5,1.1,2.6c0,1.1-0.4,1.9-1.1,2.6c-0.7,0.7-1.7,1-2.9,1H318v5.2h-2.4
			v-12.3L320.4,205.5L320.4,205.5z M319.8,210.8c0.6,0,1.1-0.1,1.5-0.4c0.4-0.3,0.5-0.7,0.5-1.3c0-1.1-0.7-1.7-2.2-1.7H318v3.4
			H319.8z"/>
		<path class="st1" d="M335.4,205.5v1.9h-5.6v3.2h5.4v1.9h-5.4v3.5h5.7v1.9h-8.1v-12.3L335.4,205.5L335.4,205.5z"/>
		<path class="st1" d="M341.2,205.5v7.2c0,0.7,0.1,1.3,0.3,1.8c0.2,0.4,0.6,0.8,1.1,1.1c0.5,0.3,1.1,0.4,1.7,0.4
			c0.7,0,1.4-0.1,1.9-0.4c0.5-0.3,0.9-0.6,1.1-1.1c0.2-0.5,0.4-1.1,0.4-1.9v-7h2.4v7.3c0,1.7-0.5,2.9-1.5,3.8
			c-1,0.9-2.4,1.3-4.2,1.3c-1.1,0-2.1-0.2-3-0.6s-1.5-1-1.9-1.8c-0.4-0.8-0.7-1.7-0.7-2.7v-7.4L341.2,205.5L341.2,205.5z"/>
		<path class="st1" d="M364.2,205.5v1.9h-4.4v10.5h-2.4v-10.5h-4.4v-1.9H364.2z"/>
		<path class="st1" d="M369.7,205.5v12.3h-2.4v-12.3L369.7,205.5L369.7,205.5z"/>
		<path class="st1" d="M380.1,205.3c1.2,0,2.4,0.3,3.4,0.8s1.8,1.3,2.4,2.3c0.6,1,0.9,2,0.9,3.2c0,0.9-0.2,1.8-0.6,2.7
			c-0.4,0.8-1,1.6-1.7,2.1c-0.7,0.6-1.5,1-2.5,1.2l0,0.1c1.3,0.6,2.5,0.9,3.5,0.9c0.4,0,0.7-0.1,1.1-0.1l0.1,0.1l-2,1.8
			c-2-0.1-4.1-1-6.4-2.7c-1-0.2-1.8-0.6-2.6-1.2c-0.8-0.6-1.4-1.3-1.8-2.2c-0.4-0.9-0.6-1.8-0.6-2.7c0-1.1,0.3-2.2,0.9-3.2
			c0.6-1,1.4-1.8,2.4-2.3C377.5,205.6,378.7,205.3,380.1,205.3z M375.6,211.7c0,1.3,0.4,2.3,1.2,3.1c0.8,0.8,1.9,1.2,3.2,1.2
			c0.8,0,1.5-0.2,2.2-0.5s1.2-0.9,1.5-1.5c0.4-0.6,0.5-1.4,0.5-2.2c0-0.8-0.2-1.6-0.5-2.2s-0.9-1.2-1.5-1.5
			c-0.7-0.4-1.4-0.6-2.2-0.6c-1.3,0-2.4,0.4-3.2,1.2C376,209.3,375.6,210.4,375.6,211.7z"/>
		<path class="st1" d="M392.5,205.5v7.2c0,0.7,0.1,1.3,0.3,1.8c0.2,0.4,0.6,0.8,1.1,1.1c0.5,0.3,1.1,0.4,1.8,0.4
			c0.7,0,1.4-0.1,1.9-0.4c0.5-0.3,0.9-0.6,1.1-1.1c0.2-0.5,0.4-1.1,0.4-1.9v-7h2.4v7.3c0,1.7-0.5,2.9-1.5,3.8
			c-1,0.9-2.4,1.3-4.2,1.3c-1.1,0-2.1-0.2-3-0.6s-1.5-1-1.9-1.8c-0.4-0.8-0.7-1.7-0.7-2.7v-7.4L392.5,205.5L392.5,205.5z"/>
		<path class="st1" d="M413.2,205.5v1.9h-5.6v3.2h5.4v1.9h-5.4v3.5h5.7v1.9h-8.1v-12.3L413.2,205.5L413.2,205.5z"/>
		<path class="st1" d="M420.3,205.3c1.2,0,2.4,0.3,3.5,0.9v2.1c-1.3-0.8-2.4-1.1-3.4-1.1c-0.6,0-1.1,0.1-1.4,0.4
			c-0.3,0.2-0.5,0.5-0.5,0.9c0,0.5,0.3,0.9,0.9,1.3c0.2,0.1,0.9,0.4,2,1c1,0.5,1.7,1,2.2,1.6s0.7,1.3,0.7,2.1c0,1.1-0.4,1.9-1.1,2.6
			s-1.8,1-3,1c-0.8,0-1.5-0.1-2-0.3c-0.6-0.2-1.2-0.5-1.9-0.9v-2.3c1.3,1.1,2.6,1.6,3.7,1.6c0.6,0,1-0.1,1.4-0.4
			c0.4-0.2,0.5-0.6,0.5-1c0-0.6-0.3-1-0.9-1.4c-0.5-0.3-1.2-0.6-2-1c-1-0.4-1.7-0.9-2.2-1.5c-0.5-0.6-0.7-1.3-0.7-2.1
			c0-1,0.4-1.9,1.1-2.5C418.1,205.6,419.1,205.3,420.3,205.3z"/>
	</g>
</g>
<path class="st2" d="M432.7,272.8c-22,0.2-67.4-2.8-67.4-2.8c-59.2-22.2-54.2-8.9-56-4.1S294,283.9,294,283.9
	c8.9,27.9,46.3,0.5,46.3,0.5c26.7-19.2-7.3-33.9-16.8-36.2s-32.7-3.2-32.7-3.2s-25.7-10.1-34.9-1.8c-7.3,6.6,9.8,15.1,24.9,15.7
	s20.6,8.1,16.9,16.6c-3.7,8.5-49.4,12.5-49.4,12.5s-17.8-24.6-24.4-21.5c-6.6,3.1,6.8,29.3,21.3,34.6"/>
<path class="st2" d="M260.3,313.1l-12.2-5.6l-9.2-19.8l-3.2-28.5c5.4-2.9,14.9,8.7,14.9,8.7l2.1,18.3l6.7,8.5L260.3,313.1l16-1.8
	c0,0-3.6-32-4.9-43.4c-0.8-6.9-9.3-10.5-12.8-0.9C251.7,285.9,260.3,313.1,260.3,313.1l25.4,9.8c3.6-18.9,65.5-44.4,75.6-46.7
	s22.2,22.9,22.2,22.9c-8.4-2.5-36,19.1-36,19.1c-9.8,5.7-37.9,2-37.9,2l-20.4-6.9c0,0-2.1-18.3-1.8-26.4s-7.1-11.9-7.1-11.9
	l-6.9,20.4l6.7,28.1c0,0,13.6,7.7,20.7,9.2s12.7-0.3,12.7-0.3s32.9-6,58.2-17c25.4-11,78.2,6.2,89.1,10.7"/>
<g>
	<path class="st2" d="M52.4,98.9c7-2.5,52.1-10.3,85.9-4.5c0,0,19.6,9,29.5,5.6c9.9-3.4,14.4-6.5,22.5-22c8.1-15.5,4.6-12,2.8-14.6
		s-13.5-10.1-33.6-1s-23.3,22.2-22.8,24.5c0.5,2.3,2.5,10.1,2.5,10.1s6.5,5.9,10.3,6.8c3.9,1,23.7,5.4,26.8,5.6s11.2-0.3,15.3-0.7
		s15.6,3.2,18.4,3.5c2.8,0.3,8.6-0.7,11.5-0.1c2.9,0.6,15.8-2.6,15.8-2.6s4.8-3.2-1.4-10.6c-6.2-7.4-37.4-4.4-37.4-4.4
		s-8.5-1.2-8.8-5.6c-0.4-4.5,3.4-13.2,6.9-15.5s37.2-11.9,40.8-11.8c3.7,0.1,13.8,7.3,20.5,15.5c6.7,8.2,12.5,1.5,12.2,0
		c-0.3-1.4-9.8-17-14.8-21.3c-4.9-4.4-18.6-13.8-21.2-14.7s-11.2,0.3-11.3,5.2c-0.1,4.9,11.6,11.4,11.6,11.4s2.7,5.5,4.9,12.3
		s4.5,16.3,7.8,17.4s9.3-0.5,9.3-0.5L251.8,65c0,0-4.9-26-25.1-29.7l6.4,32.9c0,0,2.1,19-1.8,20.8s-9.2,2.3-11.4-6
		c-2.1-8.3-4.1-25.5-4.1-25.5l-7.9-27.4c0,0,14,2.7,16.9,5.1l-14.3,4.1c0,0,2.8,20.7,2.3,24.1s-1.2,10.9-0.8,12.9
		c0,0-5.2,5.4-9.9-0.8c-4.7-6.2-1.8-12.1-1.8-12.1l-5.6-24"/>
	<path class="st2" d="M207.9,30c0,0-5.2-5.5-10.1,1c-1.3,1.8-2.9,4.4-5,7.5c-5.6,8.3-14.8,20.1-33.3,29.5
		C134.1,81,128,87.6,116.8,80.9c-11.2-6.6-17.6-16.2-16.8-18.2c0.8-2,3.9-1.8,6.7-1.2s21-15,23.2-16.1s9.7-5.5,14.3-6.8
		c4.6-1.3,23.2-4.8,25.7-4.8s19,3.7,19,3.7"/>
	<path class="st2" d="M21.4,46.5c7.5,1.1,48,8.2,74.1,2.4S124,41,132.9,36s15.3-6.4,27.7-10.7c0,0,6.2-5,12.1-5.7s26.6,7.5,27.6,7.9
		"/>
</g>
</svg>
