<?xml version="1.0" encoding="UTF-8"?><svg id="Calque_1" xmlns="http://www.w3.org/2000/svg" viewBox="0 0 783.59 136.55"><defs><style>.cls-1{fill:#dfeced;}.cls-2{fill:none;stroke:#936037;stroke-miterlimit:10;stroke-width:.95px;}</style></defs><ellipse class="cls-1" cx="526.95" cy="82.62" rx="92.06" ry="38.93"/><g><path class="cls-2" d="M599.68,81.3c12.37-6.33,59.22-19.04,59.22-19.04,0,0,49.09-16.47,124.9,4.81"/><path class="cls-2" d="M524.94,90.26c2.05,.5,4.56,.97,5.92,.72,2.56-.49,10.77-3.48,12.81-3.2,2.04,.27,27.83,2.05,31.41,1.83,3.58-.22,17.68-5.46,21.27-6.7,.44-.15,1.61-.72,3.33-1.6"/><path class="cls-2" d="M524.48,90.15c1,2.31,6.61,3.38,6.61,3.38,0,0,10.67,6.23,13.21,7.79,0,0-2.56,.23-10.2-2.14-7.64-2.37-10.44-3.68-13-3.95s-6.07-6.19,.57-5.87c0,0,1.45,.46,3.26,.9"/><path class="cls-2" d="M519.31,82.62c4.2,1.11,8.03,1.93,11,2.22,11.91,1.13,37.13,.69,37.86-4.76,.73-5.44-6.11-2.44-9.17-3.15-3.06-.71-8.81-4.85-6.73-9.26,0,0,1.75-1.82,12.66,.92,5.85,1.47,16.09,.56,16.63,1.06,0,0,24.43,10.45,25.34,23.07,.9,12.61-14.84,12.68-18.88,13.39-6.39,1.12-11.5,1.07-19.69,1.48,0,0-6.83-2.38-16.74-2.1,0,0-9.56-6.99-11.84-9.05-2.28-2.07-2.74-7.18,3.86-3.29,6.61,3.9,8.13,4.68,10.17,5.21s9.2-.17,9.2-.17c0,0-12.48-4.72-14.01-4.99s-11.46-3.94-13.5-4.73-13.19-3.37-11,1.69"/><path class="cls-2" d="M469.39,78.82c-3.73-2.42-10.15-7.25-12.87-8.64,0,0,18.74-.51,27.58,1.62,6.63,1.6,22.61,7.49,35.21,10.82"/><path class="cls-2" d="M469.39,78.82c3.73,2.42,9.16,4.17,15.65,2.19,6.49-1.98,15-1.22,20.1-.15s13.59,3.88,13.59,3.88c8.91-5.03-6.06-7.89-6.06-7.89,0,0-29.23-8.11-45.89-11.67-16.66-3.56-25.53-2.97-28.94-2.66-3.41,.31-79.37,11.23-86.21,13.56,0,0-22.72,5.34-79.83,15.91-68.63,12.7-126.83-20.17-159.75-42.5C98.41,40.21,34.92-.74,0,40.5"/><path class="cls-2" d="M444.89,75.61l11.95,6.5s6.08,5.42,8.89,6.22,10.45,2.91,12.99,4.98c2.54,2.07,6.35,3.89,11.19,5.98,0,0,4.36-1.75-2.23-7.69,0,0-7.63-3.9-9.92-5.2s-8.36-7.57-8.36-7.57"/><path class="cls-2" d="M469.39,78.82c-5.09-1.75-13.5-4.9-24.5-3.21"/></g></svg>