<?xml version="1.0" encoding="utf-8"?>
<!-- Generator: Adobe Illustrator 26.5.0, SVG Export Plug-In . SVG Version: 6.00 Build 0)  -->
<svg version="1.1" id="Calque_1" xmlns="http://www.w3.org/2000/svg" xmlns:xlink="http://www.w3.org/1999/xlink" x="0px" y="0px"
	 viewBox="0 0 373 136.6" style="enable-background:new 0 0 373 136.6;" xml:space="preserve">
<style type="text/css">
	.st0{fill:none;stroke:#936037;stroke-width:0.95;stroke-miterlimit:10;}
</style>
<path class="st0" d="M0,87.3c23.3,5.8,80.7,35.9,194.2,22.6c25.7-3,38.3-10,47.4-6.7c9.2,3.3,18.5,1,19.1-5
	c0.6-6.5-8.5-6.3-10.8-22.2c-1.2-8,17.2-31.1,16.4-38s-5-18-15-19.7s-13,10.8-10.8,13.9s4.2,10.5-0.3,10.5s-11.1-1.7-8.3-15.8
	c2.8-14.1,25.6-13,34.4-7.8s18.8,13,4.1,33c-14.7,20-26.1,37.1-28.8,42.4c-0.9,1.7-1.4,14.2,22.6,12s29.9-6.7,43.7-8.3
	c30.1-3.7,56.9,10.3,59.4,10"/>
</svg>
