<?xml version="1.0" encoding="UTF-8"?><svg id="Calque_1" xmlns="http://www.w3.org/2000/svg" viewBox="0 0 783.59 136.55"><defs><style>.cls-1{fill:none;stroke:#936037;stroke-miterlimit:10;stroke-width:.95px;}</style></defs><path class="cls-1" d="M0,53.94c19.24,12.32,46.28,24.78,46.28,24.78,0,0,56.85,24.87,86.29,19.8,29.44-5.08,43.63-47.76,25.41-54.84-24.86-9.66-18.82,22.35-16.79,26.42s8.85-10.82-5.03-24.37c-19.8-19.33-33.96,3.52-33.96,3.52,0,0-15.25,33.62,41.86,44.19,68.63,12.7,120.6-3.63,153.52-25.96,13.66-9.27,77.15-50.21,112.07-8.98,0,0,8.38,12.39-9.11,3.44-30.17-15.45,9.11-23.97,9.11-23.97,0,0,21.46-7.22,85.82,24.48"/></svg>