<?xml version="1.0" encoding="utf-8"?>
<!-- Generator: Adobe Illustrator 26.5.0, SVG Export Plug-In . SVG Version: 6.00 Build 0)  -->
<svg version="1.1" id="Calque_1" xmlns="http://www.w3.org/2000/svg" xmlns:xlink="http://www.w3.org/1999/xlink" x="0px" y="0px"
	 viewBox="0 0 123 145" style="enable-background:new 0 0 123 145;" xml:space="preserve">
<style type="text/css">
	.st0{fill:#DFECED;}
	.st1{fill:none;stroke:#936037;stroke-width:1.08;stroke-miterlimit:10;}
</style>
<path class="st0" d="M93.8,132.6c0,0,33-37.2,18.7-55c-14.4-17.8-74.8-21.2-85.3-2.8s-30.9,39.1-15.8,45.9s56.1-7.9,66.6-3.5
	C88.5,121.6,82.5,137.7,93.8,132.6z"/>
<path class="st1" d="M95.4,138.9c0,0-4.7-29.7-3.7-49.8c1.1-20.1,13.1-29.2,13.9-29.2s7.4-1.1-3.5,26.2c0,0-8,13.8-18.3,22.3
	s-16.7,6.9-20.9,5.7c0,0-8.4,2.4-13.5,1.1c0,0-27.8-12.1-31.9-27.1c0,0,0.8-7.6,21.5-3.7c0,0,9.3,8.1,14.1,9s11.1,0.3,13.8,0.3
	c0,0,9.5-0.4,11.4-9.3c0,0,2.4-2.7-13.9-1.7c0,0-3.1-0.2-7.2-0.7c0,0-5.7-1.8-13.8,0.4c0,0-7.7-0.3-2.1-4.8s9.6-6,11.4-6.5
	s3.6-0.4,5.9,0.6c0,0,2.2-0.2,4.8-1.5s3.2-1.7,5.9,0S81,78.1,80.8,80.5c0,0-0.8,4-11-3c-9.2-6.3-6.3-17.6-4.2-19.8s3.9-2.1,3.9,1
	s4,4.9,4.8-4c0.4-4.8-4.9-2.3-7.1-21.4C64.5,9.1,74.5,8.8,74.5,8.6c0,0,22.8-6,31.1,1.3c0,0,15.5,11.7-0.3,17.9
	c0,0-12.8,12.9-31.9,2.5c0,0,0-6.1,15.2-5.6c0,0,7.4,1.8,8.4,2.2s6.8,3,3.9-1.2c0,0-7.7-9.2-22.1-2.3"/>
</svg>
