<?xml version="1.0" encoding="UTF-8"?><svg id="Calque_1" xmlns="http://www.w3.org/2000/svg" viewBox="0 0 290.95 205.72"><defs><style>.cls-1{stroke:#51adae;stroke-width:1.08px;}.cls-1,.cls-2{fill:none;stroke-miterlimit:10;}.cls-3{fill:#ede2d6;}.cls-2{stroke:#936037;stroke-width:.95px;}</style></defs><ellipse class="cls-3" cx="143.56" cy="114.9" rx="34.61" ry="45.3"/><path class="cls-2" d="M.91,74.91s-46.84,12.71-59.22,19.04"/><path class="cls-1" d="M114.73,123.88s-7.52,9.32-9.67,9.67c-2.15,.36-6.92,3.21-4.66-13.97,1.79-13.62,5.19-17.02,8.24-34.75,0,0,2.51-20.42,3.22-5.37,.72,15.05,6.45,33.68,9.67,40.49,0,0,2.73,10.6,2.15,18.63-.69,9.47-23.58,31.57-8.96,46.58,14.15,14.52,31.89-2.15,31.89-2.15,0,0,17.91,18.27,34.4,1.07,0,0,15.41-12.54-12.54-43,0,0-13.26-13.97-5.37-41.56l11.47-18.99-1.17-6.61c-4.57-6.29-18.18-10.77-19.97-14.72,0,0-5.12-3.82,3.94-16.66,12.9-18.27-25.21-54.01-34.13-8.24-1.84,9.44,42.39,21.23,32.34-6.09,0,0-8.96-16.48-17.56-5.73,0,0,5,8.96,8.68,.72,0,0,.63-15.41-14.06-3.94,0,0-.26,12.9,9.9,11.82,0,0,9.8,2.15,11.95-12.18,2.15-14.33-18.27-9.67-18.27-9.67-3.94,1.79-20.42,15.41,.36,24.36,0,0,3.7-1.43,4.36,1.79,.66,3.22,3.64,15.77,0,35.11-3.64,19.35-1.69,41.92,4.14,63.78,0,0,5.11,11.11,2.96,35.47"/></svg>